<svg xmlns="http://www.w3.org/2000/svg" width="410" height="404" fill="none">
  <path fill="#41D1FF" d="M399.641 59.524c-6.135-24.58-28.2-43.992-52.566-48.91L213.873 0 80.671 10.614C56.306 15.532 34.24 34.944 28.106 59.524L0 192.2l28.106 132.676c6.134 24.58 28.2 43.992 52.565 48.91L213.873 404l133.202-10.614c24.366-4.918 46.431-24.33 52.566-48.91L410 192.2 399.641 59.524Z"/>
  <path fill="#646CFF" d="M277.936 41.056 213.873 0l-64.063 41.056 10.32 116.912 53.743 34.386 53.743-34.386 10.32-116.912Z"/>
  <path fill="#fff" d="M213.873 225.368 169.25 196.87l7.196 80.813 37.427 22.818 37.427-22.818 7.196-80.813-44.623 28.498Z"/>
</svg>
